<?xml version="1.0" encoding="UTF-8" standalone="no"?>
<!-- Created with Inkscape (http://www.inkscape.org/) -->

<svg
   version="1.1"
   id="svg59"
   width="1086.512"
   height="503.7525"
   viewBox="0 0 1086.512 503.7525"
   sodipodi:docname="pongB.svg"
   inkscape:version="1.2.2 (732a01da63, 2022-12-09)"
   xmlns:inkscape="http://www.inkscape.org/namespaces/inkscape"
   xmlns:sodipodi="http://sodipodi.sourceforge.net/DTD/sodipodi-0.dtd"
   xmlns="http://www.w3.org/2000/svg"
   xmlns:svg="http://www.w3.org/2000/svg">
  <defs
     id="defs63" />
  <sodipodi:namedview
     id="namedview61"
     pagecolor="#505050"
     bordercolor="#eeeeee"
     borderopacity="1"
     inkscape:showpageshadow="0"
     inkscape:pageopacity="0"
     inkscape:pagecheckerboard="0"
     inkscape:deskcolor="#505050"
     showgrid="false"
     inkscape:zoom="0.36341698"
     inkscape:cx="276.54184"
     inkscape:cy="192.61621"
     inkscape:window-width="1366"
     inkscape:window-height="705"
     inkscape:window-x="-8"
     inkscape:window-y="-8"
     inkscape:window-maximized="1"
     inkscape:current-layer="g65" />
  <g
     inkscape:groupmode="layer"
     inkscape:label="Image"
     id="g65"
     transform="translate(-73.849983,-92.039614)">
    <path

       d="m 132.75166,593.93202 c -23.527,-6.90587 -26.09177,-40.49268 -4,-52.38182 9.68781,-5.21369 676.12001,-4.36718 685.02981,0.87014 19.6994,11.57956 18.806,38.90669 -1.6105,49.25963 -7.2878,3.69556 -667.05116,5.88245 -679.41931,2.25205 z m 978.88944,0.0175 c -25.3986,-6.33066 -37.67,-38.60781 -22.8233,-60.03155 21.7619,-31.40243 71.2672,-16.18427 71.2672,21.90785 0,24.83502 -24.4769,44.09756 -48.4439,38.12372 z M 1011.4184,515.1817 C 915.13657,506.05198 858.77047,400.22427 904.98187,315.34662 c 58.5476,-107.53581 218.64583,-88.36599 250.54733,30 8.7744,32.55633 7.8439,34.00001 -21.9141,34.00001 -26.8634,0 -26.8634,0 -26.8865,-3.66667 -0.3248,-51.42934 -59.7128,-91.09256 -109.31023,-73.0045 -81.6279,29.76948 -67.7284,150.90871 18.23633,158.93621 8.4303,0.78724 8.4303,0.78724 8.4303,27.92776 0,14.92729 -0.15,27.05944 -0.3333,26.96033 -0.1833,-0.0991 -5.7333,-0.69224 -12.3333,-1.31806 z M 102.31477,441.50977 C 77.918088,434.67425 66.472408,405.98356 79.365478,383.9832 c 12.79525,-21.83346 43.694052,-25.58963 61.194542,-7.43905 27.60731,28.63284 -0.0773,75.65962 -38.24525,64.96562 z m 351.87022,0.5167 C 373.38551,427.35703 342.93322,326.71232 402.46027,271.07649 c 63.03668,-58.91602 166.83918,-14.40308 167.10427,71.65823 0.19011,61.71548 -56.00147,110.07207 -115.37955,99.29175 z m 168.8494,-61.01318 c 0.43618,-58.33333 0.43618,-58.33333 3.89982,-68.55553 32.02549,-94.51635 171.22066,-90.72739 197.44986,5.37466 2.5546,9.35992 2.8266,14.66959 3.3727,65.84754 0.594,55.66667 0.594,55.66667 -25.5389,55.66667 -26.1329,0 -26.1329,0 -26.1329,-52.42467 0,-58.091 -0.3028,-60.67183 -8.6261,-73.51227 -22.6436,-34.93281 -74.5412,-29.48068 -90.22556,9.47871 -3.08753,7.66934 -3.14314,8.64381 -3.5449,62.12489 -0.40816,54.33334 -0.40816,54.33334 -25.74918,54.33334 -25.34101,0 -25.34101,0 -24.90484,-58.33334 z M 209.41833,336.8649 c 0,-26.85161 0,-26.85161 5.66666,-26.87132 67.29646,-0.23405 101.65602,-89.77261 53.19531,-138.6232 -49.23096,-49.62704 -140.19531,-17.54188 -140.19531,49.45003 0,6.52621 0,6.52621 -27.43945,6.52621 -27.439462,0 -27.439462,0 -26.541522,-9 11.72227,-117.4914 148.220132,-168.12078 231.764732,-85.96549 81.1546,79.80504 28.20211,223.85017 -84.78376,230.63481 -11.66666,0.70056 -11.66666,0.70056 -11.66666,-26.15104 z"
       id="path192" />
  </g>
</svg>
